<svg xmlns="http://www.w3.org/2000/svg" xmlns:xlink="http://www.w3.org/1999/xlink" width="1920" zoomAndPan="magnify" viewBox="0 0 1440 1439.999935" height="1920" preserveAspectRatio="xMidYMid meet" version="1.0"><defs><g/><clipPath id="id1"><path d="M 81.632812 81.632812 L 1358.132812 81.632812 L 1358.132812 1358.132812 L 81.632812 1358.132812 Z M 81.632812 81.632812 " clip-rule="nonzero"/></clipPath></defs><g clip-path="url(#id1)"><path fill="#00874c" d="M 719.882812 81.632812 C 367.386719 81.632812 81.632812 367.386719 81.632812 719.882812 C 81.632812 1072.378906 367.386719 1358.132812 719.882812 1358.132812 C 1072.378906 1358.132812 1358.132812 1072.378906 1358.132812 719.882812 C 1358.132812 367.386719 1072.378906 81.632812 719.882812 81.632812 " fill-opacity="1" fill-rule="nonzero"/></g><g fill="#ffffff" fill-opacity="1"><g transform="translate(302.647749, 1079.663115)"><g><path d="M 29.453125 -344.9375 C 29.453125 -416.125 42.34375 -478.3125 68.125 -531.5 C 93.90625 -584.695312 129.09375 -625.617188 173.6875 -654.265625 C 218.289062 -682.910156 268.007812 -697.234375 322.84375 -697.234375 C 370.300781 -697.234375 411.210938 -687.820312 445.578125 -669 C 479.953125 -650.175781 506.550781 -624.804688 525.375 -592.890625 L 525.375 -688.640625 L 765.96875 -688.640625 L 765.96875 0 L 525.375 0 L 525.375 -95.75 C 506.550781 -63.832031 479.75 -38.460938 444.96875 -19.640625 C 410.195312 -0.816406 369.488281 8.59375 322.84375 8.59375 C 268.007812 8.59375 218.289062 -5.722656 173.6875 -34.359375 C 129.09375 -63.003906 93.90625 -104.128906 68.125 -157.734375 C 42.34375 -211.335938 29.453125 -273.738281 29.453125 -344.9375 Z M 525.375 -344.9375 C 525.375 -389.125 513.300781 -423.898438 489.15625 -449.265625 C 465.019531 -474.640625 435.359375 -487.328125 400.171875 -487.328125 C 364.160156 -487.328125 334.289062 -474.84375 310.5625 -449.875 C 286.832031 -424.914062 274.96875 -389.9375 274.96875 -344.9375 C 274.96875 -300.738281 286.832031 -265.75 310.5625 -239.96875 C 334.289062 -214.195312 364.160156 -201.3125 400.171875 -201.3125 C 435.359375 -201.3125 465.019531 -213.992188 489.15625 -239.359375 C 513.300781 -264.734375 525.375 -299.925781 525.375 -344.9375 Z M 525.375 -344.9375 "/></g></g></g></svg>